<svg id="Layer_3" data-name="Layer 3" xmlns="http://www.w3.org/2000/svg" viewBox="0 0 526.85 243.74"><defs><style>.cls-1,.cls-3{fill:#fff;}.cls-2,.cls-6{fill:#b0aeae;}.cls-3,.cls-6{font-size:57.68px;font-family:Xirod-Regular, Xirod;}.cls-4{letter-spacing:-0.01em;}.cls-5{letter-spacing:0em;}</style></defs><path class="cls-1" d="M146.72,77.62v84.76c32.68-17.7,44.67-65.19,35.07-83.06C171.91,60.94,149.54,77.73,146.72,77.62Z"/><path class="cls-1" d="M73.19,37.11l36.09,20.76V243.74L72.37,205.88a17.06,17.06,0,0,0-4.93-3.53c-11.67-5.46-36.77-19.58-53.14-49.16A115.93,115.93,0,0,1,0,101.11l36.09,20.08c-.35,13.62,13.85,32.6,24.85,34.38,9,1.46,10.36-7.07,11.91-8.51Z"/><path class="cls-2" d="M109.28,57.87c4.18-1.59,12.89-7.21,26.38-15,9.59-5.51,20.84-13.23,38-16.34,9.21-1.67,17.65.71,24.51,2.39L163.06,8.51c-3.38-1.89-7-5.12-15.4-5.11-12.79,0-16.51,2.13-20.43,3.41l-54,30.3Z"/><text class="cls-3" transform="translate(220.98 116.04)">Ju<tspan class="cls-4" x="114.09" y="0">s</tspan><tspan class="cls-5" x="169.75" y="0">tin</tspan></text><text class="cls-6" transform="translate(221.49 171.7)">Durias</text></svg>