<svg id="Layer_1" data-name="Layer 1" xmlns="http://www.w3.org/2000/svg" viewBox="0 0 16 16"><defs><style>.cls-1{fill:#fff;}.cls-2{fill:#afaeaf;}</style></defs><path class="cls-1" d="M1.39,6.63,3.71,7.94S3.84,9.54,5,10c.64.25.87-.47.87-.47V3.39A.4.4,0,0,1,6.49,3l1.76,1V15.64L5.72,13.09a9.68,9.68,0,0,1-3.09-2.56A8.28,8.28,0,0,1,1.39,6.63Z"/><path class="cls-2" d="M6.63,2.51l2,1.17a.55.55,0,0,0,.58,0A26.51,26.51,0,0,1,12.63,2a3.42,3.42,0,0,1,1.73.19,8.92,8.92,0,0,0-1.18-.85c-.64-.38-1.3-.73-1.4-.77A2,2,0,0,0,11,.43a2.25,2.25,0,0,0-.86.18C10,.66,6.63,2.51,6.63,2.51Z"/><path class="cls-2" d="M10.53,5.22V9.81a.38.38,0,0,0,.62.3,4.78,4.78,0,0,0,1.2-1.48A6.28,6.28,0,0,0,13,5.58a1,1,0,0,0-.68-.91C11.76,4.44,10.53,5.22,10.53,5.22Z"/></svg>